<?xml version="1.0" standalone="no"?>
<!DOCTYPE svg PUBLIC "-//W3C//DTD SVG 20010904//EN"
 "http://www.w3.org/TR/2001/REC-SVG-20010904/DTD/svg10.dtd">
<svg version="1.0" xmlns="http://www.w3.org/2000/svg"
 width="500.000000pt" height="500.000000pt" viewBox="0 0 500.000000 500.000000"
 preserveAspectRatio="xMidYMid meet">
<metadata>
Created by potrace 1.14, written by Peter Selinger 2001-2017
</metadata>
<g transform="translate(0.000000,500.000000) scale(0.100000,-0.100000)"
fill="#000000" stroke="none">
<path d="M2070 4350 c-21 -13 -22 -307 0 -320 8 -5 70 -10 138 -10 l122 0 1
-27 c3 -71 -1 -175 -7 -185 -4 -7 -9 -6 -15 3 -5 8 -9 9 -9 3 0 -6 -16 -10
-35 -9 -19 0 -35 -3 -35 -8 0 -5 -7 -7 -15 -3 -8 3 -15 0 -15 -7 0 -8 -4 -6
-10 3 -5 8 -10 10 -10 4 0 -6 -6 -11 -12 -12 -7 0 -24 -3 -38 -7 -14 -4 -31
-7 -37 -7 -7 -1 -13 -6 -13 -11 0 -5 -6 -4 -14 2 -11 9 -15 9 -18 0 -2 -6 -16
-11 -32 -11 -15 0 -30 -6 -33 -14 -2 -7 -11 -10 -19 -7 -8 3 -14 0 -14 -5 0
-6 -9 -9 -20 -7 -11 2 -18 0 -15 -6 4 -5 -3 -9 -14 -9 -12 0 -21 -4 -21 -10 0
-5 -6 -7 -14 -4 -8 3 -17 0 -21 -5 -3 -6 -11 -9 -16 -6 -5 4 -9 1 -9 -5 0 -6
-4 -9 -9 -5 -6 3 -14 -2 -19 -11 -5 -9 -13 -16 -18 -16 -21 -1 -64 -21 -64
-29 0 -5 -7 -9 -15 -9 -8 0 -15 -5 -15 -12 0 -6 -3 -9 -6 -5 -4 3 -21 -5 -39
-18 -17 -14 -37 -25 -43 -25 -6 0 -18 -10 -26 -22 -9 -12 -16 -18 -16 -13 0 5
-8 0 -19 -11 -37 -38 -61 -54 -61 -41 0 6 -14 23 -30 36 -16 13 -27 28 -23 34
3 5 1 7 -4 4 -10 -6 -31 10 -32 25 0 4 24 31 54 60 41 39 51 55 43 65 -8 10
-7 13 3 13 7 0 -1 13 -19 29 -17 17 -32 35 -32 42 0 7 -3 10 -6 6 -3 -3 -26
15 -50 41 -25 26 -49 47 -54 47 -4 0 -11 3 -15 7 -11 10 -56 -22 -48 -35 4 -6
0 -8 -11 -4 -10 4 -15 3 -11 -3 3 -5 -3 -15 -15 -22 -11 -7 -20 -18 -20 -25 0
-7 -3 -12 -7 -11 -11 4 -82 -69 -75 -76 3 -3 0 -6 -7 -6 -6 0 -30 -19 -52 -42
-23 -24 -46 -42 -51 -40 -5 1 -7 -2 -4 -7 4 -5 -5 -18 -19 -29 -14 -11 -25
-25 -25 -31 0 -6 -3 -10 -8 -8 -4 1 -24 -15 -45 -36 -36 -38 -49 -77 -25 -77
6 0 9 -3 5 -6 -3 -3 24 -36 61 -72 37 -36 66 -69 65 -73 -1 -4 11 -9 27 -11
16 -2 27 -1 24 4 -3 4 1 8 9 8 19 0 59 44 50 55 -5 4 -3 5 3 2 6 -3 20 2 30
11 10 10 21 20 24 23 8 6 39 -25 33 -33 -2 -5 3 -8 12 -8 9 0 13 -4 10 -10 -3
-5 3 -15 15 -22 33 -21 23 -49 -46 -124 -12 -12 -20 -25 -18 -27 2 -2 -7 -16
-21 -31 -13 -14 -25 -30 -25 -34 -1 -19 -12 -42 -21 -42 -6 0 -8 -4 -4 -9 3
-6 -3 -14 -12 -20 -10 -6 -15 -11 -10 -11 4 0 0 -11 -9 -25 -9 -14 -13 -25 -9
-25 3 0 -1 -7 -9 -16 -9 -8 -14 -20 -11 -25 4 -5 1 -9 -5 -9 -6 0 -9 -4 -6 -9
4 -5 2 -11 -4 -13 -6 -2 -12 -13 -15 -26 -2 -12 -7 -27 -10 -32 -3 -5 -8 -20
-10 -32 -3 -12 -10 -25 -17 -30 -10 -6 -9 -8 2 -8 13 0 13 -1 0 -10 -8 -5 -11
-12 -8 -15 4 -4 -2 -22 -13 -41 -11 -20 -14 -34 -8 -34 8 0 8 -5 -1 -15 -6 -8
-9 -19 -5 -25 3 -5 1 -10 -5 -10 -6 0 -8 -4 -5 -10 3 -5 0 -10 -7 -10 -10 0
-9 -3 1 -9 11 -7 12 -13 4 -23 -6 -7 -12 -33 -14 -58 -1 -25 -5 -49 -8 -55
-10 -18 -7 -65 3 -65 8 0 8 -2 0 -8 -6 -4 -10 -31 -10 -59 1 -29 -3 -53 -8
-53 -5 0 -4 -6 1 -12 5 -7 8 -32 7 -56 0 -23 3 -45 7 -48 5 -3 5 -13 -1 -23
-5 -10 -6 -21 -3 -25 3 -3 7 -21 9 -38 2 -33 8 -75 20 -133 3 -16 7 -41 8 -53
2 -13 7 -27 12 -30 5 -4 10 -16 9 -27 0 -11 6 -29 13 -41 6 -11 9 -24 5 -27
-3 -4 -1 -7 5 -7 7 0 11 -3 10 -8 -4 -11 25 -96 35 -103 5 -4 10 -18 10 -32 1
-14 7 -25 12 -24 6 1 9 -6 7 -15 -2 -10 2 -18 7 -18 5 0 15 -16 22 -35 7 -19
16 -35 19 -35 4 0 12 -16 20 -35 8 -19 20 -35 29 -35 8 0 11 -3 8 -7 -4 -3 5
-21 19 -40 14 -18 22 -33 18 -33 -4 0 4 -9 17 -21 13 -12 23 -25 21 -30 -1 -5
5 -9 14 -9 8 0 12 -4 9 -10 -3 -5 -1 -10 4 -10 6 0 11 -7 11 -16 0 -8 5 -12
11 -9 6 4 13 -2 16 -14 3 -12 12 -21 19 -21 8 0 14 -3 14 -7 0 -13 108 -121
114 -115 3 3 6 0 6 -6 0 -7 6 -12 13 -12 7 0 18 -9 25 -20 7 -11 19 -20 27
-20 8 0 15 -7 15 -15 0 -9 6 -12 17 -8 10 4 14 2 10 -4 -4 -6 7 -16 23 -23 17
-7 30 -16 30 -21 0 -5 7 -9 15 -9 8 0 15 -5 15 -11 0 -5 4 -7 10 -4 5 3 10 1
10 -4 0 -6 7 -11 15 -11 8 0 15 -5 15 -11 0 -5 4 -8 9 -5 5 4 11 2 13 -3 1 -5
10 -11 18 -13 8 -2 18 -7 21 -11 3 -4 15 -9 27 -10 11 0 18 -5 16 -9 -5 -7 10
-12 29 -9 4 0 7 -4 7 -9 0 -6 6 -10 13 -10 8 0 28 -7 45 -16 18 -8 36 -13 42
-9 6 3 13 -1 16 -9 3 -9 10 -14 14 -11 10 6 62 -15 72 -30 5 -7 8 -6 8 1 0 8
10 8 34 0 19 -6 32 -14 29 -19 -3 -5 4 -4 15 2 14 7 23 8 27 1 3 -5 19 -10 34
-10 15 0 32 -5 39 -12 9 -9 12 -9 12 0 0 9 6 10 18 4 9 -5 37 -10 62 -11 25
-2 51 -8 59 -14 11 -9 13 -9 8 0 -5 8 0 11 13 10 11 -1 20 -4 20 -7 0 -4 7 -7
15 -7 8 0 15 3 15 7 0 8 37 6 46 -3 4 -3 15 -2 25 4 13 7 19 6 19 -1 0 -7 6
-8 18 -2 9 5 22 7 29 5 7 -2 21 1 32 7 14 7 21 7 21 1 0 -6 6 -8 13 -6 12 5
60 13 104 18 12 2 25 6 28 9 4 4 13 4 21 1 8 -3 14 0 14 6 0 9 5 9 20 1 12 -7
20 -7 20 -1 0 5 20 13 45 17 25 3 48 10 51 15 3 5 10 7 15 4 5 -4 9 -1 9 5 0
7 6 10 13 7 6 -2 24 2 40 10 15 7 27 11 27 7 0 -4 7 -1 15 6 8 7 15 9 15 4 0
-5 4 -3 9 4 4 7 14 15 22 16 30 7 79 31 79 39 0 4 4 6 9 2 5 -3 17 2 25 11 9
8 16 12 16 8 0 -3 6 -1 13 5 8 6 18 7 22 3 5 -4 6 -2 3 3 -3 6 0 16 8 23 9 8
14 9 14 2 0 -6 10 -2 22 9 11 11 26 18 31 14 6 -3 7 -1 3 5 -3 6 3 13 14 17
11 3 20 11 20 16 0 6 4 8 9 5 5 -3 12 1 15 10 3 8 10 13 15 9 6 -3 15 4 21 16
7 11 14 18 17 16 2 -3 24 14 48 37 24 24 50 46 59 49 9 4 16 11 16 17 0 6 5 8
10 5 6 -4 9 -3 8 2 -2 4 5 19 15 33 9 13 17 20 17 15 0 -5 8 2 17 15 10 14 28
33 40 43 13 10 23 23 23 29 0 6 10 19 22 29 11 11 18 19 14 19 -4 0 5 12 19
27 14 15 25 32 25 36 0 5 11 23 25 41 14 18 22 36 18 39 -3 4 1 7 10 7 10 0
14 5 11 15 -4 8 -1 15 5 15 12 0 38 57 33 73 -1 4 2 7 8 7 5 0 10 7 10 15 0 9
11 33 25 55 16 26 21 40 13 40 -9 1 -8 5 3 13 9 7 15 20 13 30 -1 9 2 17 8 17
6 0 8 6 5 14 -3 8 -2 16 3 18 6 2 11 15 12 31 1 15 5 27 9 27 3 0 6 6 7 13 1
18 10 72 12 72 3 0 11 39 13 62 2 12 5 25 8 28 4 3 4 22 2 41 -2 25 0 33 8 29
8 -6 8 -2 0 13 -6 12 -7 23 -3 26 5 3 8 46 8 96 -1 54 3 90 9 90 6 0 3 5 -5
10 -11 7 -11 10 -2 10 8 0 10 5 5 13 -4 6 -6 20 -5 30 2 9 -2 17 -9 17 -8 0
-9 4 0 13 8 10 7 17 -1 25 -9 9 -9 12 1 12 7 0 9 5 5 12 -9 14 -15 56 -18 110
0 20 -5 34 -10 30 -5 -3 -7 5 -4 16 4 12 2 22 -3 22 -5 0 -7 11 -5 25 3 14 1
23 -4 20 -4 -3 -11 2 -14 11 -4 10 -2 13 6 8 7 -5 8 -3 2 7 -5 8 -9 17 -10 22
-1 4 -2 8 -3 10 -2 1 -4 13 -7 26 -2 14 -9 30 -15 38 -6 7 -8 13 -4 13 4 0 2
7 -5 15 -6 8 -9 19 -5 25 3 5 1 10 -4 10 -6 0 -11 9 -11 20 0 11 -4 20 -10 20
-5 0 -10 12 -10 26 0 16 -4 23 -11 18 -7 -4 -10 -1 -7 7 3 8 -2 20 -11 27 -13
11 -13 12 -1 6 10 -5 9 0 -4 14 -11 12 -15 22 -10 22 5 0 1 5 -9 11 -9 6 -15
14 -12 20 4 5 1 9 -4 9 -6 0 -11 9 -11 21 0 11 -4 17 -10 14 -5 -3 -10 0 -10
8 0 7 -9 23 -20 35 -12 12 -18 22 -15 22 4 0 -1 7 -9 16 -9 8 -14 20 -11 25 4
5 -1 9 -9 9 -13 0 -21 13 -14 23 1 1 -10 14 -25 29 l-28 28 52 52 c31 32 54
48 56 41 3 -7 9 -13 14 -13 12 0 69 -60 69 -73 0 -6 3 -7 6 -4 4 3 15 2 25 -4
13 -6 19 -6 19 1 0 5 3 9 8 8 10 -4 122 109 115 116 -6 5 12 10 29 7 4 0 10
14 13 32 6 30 1 38 -49 89 -30 31 -57 54 -60 50 -3 -3 -6 0 -6 7 0 16 -26 42
-34 34 -3 -4 -6 -1 -6 5 0 14 -42 58 -52 55 -4 -2 -10 6 -13 17 -4 11 -14 20
-23 20 -15 0 -15 2 -2 10 13 8 13 10 -1 10 -9 0 -24 11 -35 24 -10 14 -21 23
-26 20 -4 -3 -8 -1 -8 5 0 15 -88 99 -108 103 -10 2 -35 -14 -60 -39 -24 -24
-48 -43 -53 -43 -6 0 -8 -4 -5 -9 3 -4 -8 -19 -24 -31 -17 -13 -30 -29 -30
-36 0 -8 -4 -14 -10 -14 -14 0 -12 -16 5 -33 8 -8 11 -17 8 -21 -4 -3 -2 -6 4
-6 9 0 83 -66 83 -75 0 -2 -13 -18 -30 -35 -16 -17 -30 -35 -30 -41 0 -6 -4
-8 -9 -4 -6 3 -15 -3 -21 -12 -8 -13 -13 -14 -16 -5 -3 6 -10 10 -15 6 -5 -3
-9 2 -9 10 0 9 -9 16 -20 16 -11 0 -20 7 -20 16 0 8 -4 12 -10 9 -5 -3 -10 -1
-10 4 0 6 -7 11 -15 11 -7 0 -19 8 -24 18 -6 9 -11 13 -11 9 0 -4 -10 1 -22
13 -12 11 -28 20 -35 20 -7 0 -13 5 -13 10 0 6 -9 10 -20 10 -11 0 -20 5 -20
10 0 6 -7 10 -15 10 -8 0 -15 5 -15 12 0 6 -3 9 -6 6 -3 -3 -31 7 -62 22 -30
16 -59 27 -64 24 -4 -3 -8 0 -8 5 0 6 -8 11 -17 11 -10 0 -26 7 -36 15 -11 7
-27 12 -38 10 -10 -2 -19 0 -19 6 0 5 -10 9 -23 9 -13 0 -27 3 -31 7 -8 8 -34
14 -58 14 -10 0 -18 4 -18 8 0 5 -11 7 -24 6 -14 -2 -33 3 -43 10 -12 9 -23
10 -35 4 -10 -6 -19 -5 -23 1 -3 5 -19 10 -36 10 -16 0 -30 6 -30 13 -5 45 -3
73 6 79 7 5 7 8 0 8 -6 0 -10 17 -9 38 1 20 3 45 3 55 1 15 14 17 130 17 126
0 130 1 137 23 11 32 12 257 1 290 l-9 27 -421 0 c-242 0 -428 -4 -437 -10z
m1361 -1320 c4 -14 8 -20 8 -15 2 11 31 -24 31 -37 0 -4 -7 -8 -16 -8 -8 0
-12 5 -9 10 5 9 -1 12 -21 9 -4 0 -10 4 -14 11 -4 6 -16 13 -26 15 -10 2 -20
4 -22 4 -1 1 2 10 8 22 15 28 52 21 61 -11z m62 -74 c4 -10 0 -12 -14 -9 -10
3 -16 9 -13 14 8 13 21 11 27 -5z"/>
</g>
</svg>
